<svg width="117" height="119" viewBox="0 0 117 119" fill="none" xmlns="http://www.w3.org/2000/svg">
<path d="M58.33 20.1499C57.5505 20.148 56.7879 20.3768 56.1381 20.8074C55.4884 21.2381 54.9806 21.8514 54.6786 22.5701C54.3767 23.2887 54.2942 24.0807 54.4415 24.8462C54.5888 25.6116 54.9592 26.3164 55.5063 26.8718C56.0533 27.4271 56.7524 27.8082 57.5156 27.967C58.2787 28.1259 59.0718 28.0553 59.795 27.7643C60.5182 27.4733 61.139 26.9748 61.5795 26.3317C62.0199 25.6885 62.2602 24.9294 62.2701 24.1499C62.2702 23.0994 61.857 22.0909 61.1198 21.3425C60.3825 20.594 59.3805 20.1657 58.33 20.1499Z" fill="#FFBBBB"/>
<path d="M95.02 57.52L79.19 89.94L67.07 64.09L81.92 31C86.75 19.37 77.07 0 58.33 0C39.59 0 29.9 19.35 34.73 31L49.58 64.09L37.46 89.94L21.63 57.52H0L30.5 118.72H42.89L58.33 83.59L73.81 118.72H86.2L116.7 57.52H95.02ZM49.51 27.84C46.51 20.15 52.76 14.99 58.33 14.99C63.9 14.99 70.2 20.15 67.14 27.84L58.33 47.48L49.51 27.84Z" fill="#FFBBBB"/>
</svg>
